<?xml version="1.0" encoding="utf-8"?>
<!-- Generator: Adobe Illustrator 25.4.1, SVG Export Plug-In . SVG Version: 6.00 Build 0)  -->
<svg version="1.0" id="Layer_1" xmlns="http://www.w3.org/2000/svg" xmlns:xlink="http://www.w3.org/1999/xlink" x="0px" y="0px"
	 viewBox="0 0 915 602.3" style="enable-background:new 0 0 915 602.3;" xml:space="preserve">
<style type="text/css">
	.st0{fill:url(#SVGID_1_);}
	.st1{fill:url(#SVGID_00000183249655596522182440000014693663377143560592_);}
</style>
<path d="M336.8,298.6v-25.9h13.9c8.8,0,14.1,5,14.1,13c0,7.8-5.4,12.9-14.1,12.9L336.8,298.6z M352.8,313.8
	c17.8,0,29.7-11.7,29.7-28.2s-11.9-28.1-29.7-28.1h-33.7v90.3h17.6v-34L352.8,313.8z"/>
<path d="M411.1,311c0.4-6.9,4.6-12.2,11.7-12.2c8.1,0,11.6,5.5,11.6,12.5v36.6h17v-39.5c0-13.8-7.4-24.8-23.3-24.8
	c-6,0-12.9,2-16.9,6.9v-34.8h-16.9v92.2h16.9V311z"/>
<path d="M464.8,330.7c0,9.8,8.2,18.9,21.5,18.9c9.3,0,15.3-4.3,18.5-9.3c0,2.5,0.2,5,0.6,7.5h15.5c-0.5-3.3-0.7-6.6-0.8-9.9V307
	c0-12.6-7.4-23.8-27.3-23.8c-16.8,0-25.9,10.8-26.9,20.6l15,3.2c0.5-5.5,4.6-10.2,12-10.2c7.1,0,10.6,3.7,10.6,8.2
	c0,2.2-1.1,4-4.7,4.5l-15.4,2.3C473,313.2,464.8,319.5,464.8,330.7z M489.9,336.9c-5.5,0-8.1-3.6-8.1-7.3c0-4.8,3.4-7.3,7.8-7.9
	l14.1-2.2v2.8C503.6,333.5,497,336.9,489.9,336.9L489.9,336.9z"/>
<path d="M554.2,311.7c0-7.3,4.3-13,11.7-13c8.1,0,11.6,5.5,11.6,12.5v36.6h17v-39.5c0-13.8-7.1-24.8-22.7-24.8
	c-6.8,0-14.3,2.9-18.1,9.4v-7.7h-16.5v62.7h16.9V311.7z"/>
<path d="M632.5,266.4h-15.3v8.8c0,5.6-3.1,9.9-9.7,9.9h-3.2v15h11.3v29.2c0,12.1,7.6,19.4,19.9,19.4c3.3,0.1,6.5-0.4,9.6-1.5v-13.9
	c-1.7,0.4-3.5,0.5-5.2,0.5c-4.8,0-7.4-1.8-7.4-7.3v-26.2h12.6v-15h-12.6V266.4z"/>
<path d="M687.1,334.3c-8.3,0-15.9-6.1-15.9-17.8s7.6-17.8,15.9-17.8s15.9,6,15.9,17.8S695.4,334.3,687.1,334.3z M687.1,283.2
	c-18.7,0-32.9,13.9-32.9,33.2s14.2,33.2,32.9,33.2s32.9-14,32.9-33.2S705.8,283.1,687.1,283.2L687.1,283.2z"/>
<path d="M750.3,347.8v-36.7c0-6.9,4.3-12.4,11.7-12.4c7.6,0,11.1,5.1,11.1,11.8v37.2h16.8v-36.7c0-6.8,4.3-12.4,11.6-12.4
	c7.8,0,11.1,5.1,11.1,11.8v37.2H829v-40.6c0-16.8-11.1-23.8-22.7-23.8c-8.3,0-14.9,2.8-19.9,10.5c-3.2-6.8-10.1-10.5-18.6-10.5
	c-6.9,0-14.9,3.3-18.3,9.4v-7.6h-16.2v62.7L750.3,347.8z"/>
<linearGradient id="SVGID_1_" gradientUnits="userSpaceOnUse" x1="175.64" y1="351.86" x2="175.64" y2="524.14" gradientTransform="matrix(1 0 0 1 -3.5 -136.86)">
	<stop  offset="0" style="stop-color:#534BB1"/>
	<stop  offset="1" style="stop-color:#551BF9"/>
</linearGradient>
<circle class="st0" cx="172.1" cy="301.1" r="86.1"/>
<linearGradient id="SVGID_00000038397525800382849060000006763333966248108942_" gradientUnits="userSpaceOnUse" x1="177.4738" y1="383.02" x2="177.4738" y2="496.65" gradientTransform="matrix(1 0 0 1 -3.5 -136.86)">
	<stop  offset="0" style="stop-color:#FFFFFF"/>
	<stop  offset="1" style="stop-color:#FFFFFF;stop-opacity:0.82"/>
</linearGradient>
<path style="fill:url(#SVGID_00000038397525800382849060000006763333966248108942_);" d="M233.8,302.2h-15.2
	c0-31.1-25.1-56.3-56.1-56.3c-30.7,0-55.7,24.5-56.3,55.2c-0.6,31.4,29,58.7,60.5,58.7h4c27.8,0,65.1-21.7,70.9-48.1
	c0.9-4.3-1.9-8.4-6.2-9.3C234.9,302.2,234.4,302.2,233.8,302.2z M139.8,303.6c0,4.2-3.4,7.5-7.6,7.5c-4.2,0-7.5-3.4-7.5-7.5v-12.2
	c0-4.2,3.4-7.5,7.6-7.5c4.2,0,7.5,3.4,7.5,7.5V303.6z M166,303.6c0,4.2-3.4,7.5-7.6,7.5c-4.2,0-7.5-3.4-7.5-7.5v-12.2
	c0-4.2,3.4-7.5,7.6-7.5c4.2,0,7.5,3.4,7.5,7.5V303.6z"/>
</svg>
